<svg xmlns="http://www.w3.org/2000/svg" version="1.1" xmlns:xlink="http://www.w3.org/1999/xlink" width="64" height="64" x="0" y="0" viewBox="0 0 44.166 44.167" style="enable-background:new 0 0 512 512" xml:space="preserve"><g><path d="M21.234 20.375c.47.468 1.228.468 1.697 0l8.775-8.733a6.819 6.819 0 0 0-9.624-9.663 6.817 6.817 0 0 0-9.624.019 6.821 6.821 0 0 0 0 9.644l8.776 8.733zM22.932 23.791a1.202 1.202 0 0 0-1.697.001c-2.327 2.314-8.646 8.604-8.775 8.732a6.819 6.819 0 0 0 9.624 9.664 6.815 6.815 0 0 0 9.624-.019 6.823 6.823 0 0 0 0-9.645c-.131-.128-6.449-6.418-8.776-8.733zM42.168 12.459a6.823 6.823 0 0 0-9.645-.001c-.131.129-6.419 6.448-8.733 8.774a1.202 1.202 0 0 0 .001 1.697c2.314 2.328 8.604 8.648 8.732 8.777a6.823 6.823 0 0 0 9.645.001 6.821 6.821 0 0 0 .018-9.625 6.817 6.817 0 0 0-.018-9.623zM20.376 22.932a1.203 1.203 0 0 0 0-1.697l-8.733-8.775a6.82 6.82 0 0 0-9.664 9.624 6.818 6.818 0 0 0 .02 9.624 6.821 6.821 0 0 0 9.644.001l8.733-8.777z" fill="#000000" opacity="1" data-original="#000000"></path></g></svg>