<svg version="1.1" id="Layer_1" xmlns="http://www.w3.org/2000/svg" xmlns:xlink="http://www.w3.org/1999/xlink" x="0px" y="0px"
	 width="100%" viewBox="0 0 512 512" enable-background="new 0 0 512 512" xml:space="preserve">
<path fill="#4C6971" opacity="1.000000" stroke="none" 
	d="
M1.000000,177.000000 
	C1.000000,118.000000 1.000000,59.500000 1.000000,1.000000 
	C171.666672,1.000000 342.333344,1.000000 513.000000,1.000000 
	C513.000000,171.666672 513.000000,342.333344 513.000000,513.000000 
	C342.333344,513.000000 171.666672,513.000000 1.000000,513.000000 
	C1.000000,401.166656 1.000000,289.333344 1.000000,177.000000 
M157.266190,330.730469 
	C159.160370,333.852631 161.054550,336.974762 163.042114,340.807159 
	C167.003510,347.557709 170.964905,354.308258 175.002029,361.678589 
	C179.057220,368.774017 183.112411,375.869415 187.078842,383.659912 
	C190.358780,389.479248 193.638718,395.298553 197.184662,401.660400 
	C200.787415,407.802063 204.390167,413.943726 208.315292,420.692841 
	C212.534302,427.826874 216.753326,434.960876 221.073624,442.720886 
	C225.374237,450.181671 229.674835,457.642456 234.266174,465.730255 
	C238.482605,473.353668 242.645218,481.007477 246.928574,488.593109 
	C252.771759,498.941101 265.222015,499.710846 270.884216,490.029205 
	C274.707153,483.492523 278.269867,476.802948 281.915802,470.163574 
	C291.551117,452.617279 301.157623,435.055206 310.798553,417.512054 
	C314.179626,411.359650 317.627625,405.244049 321.656219,398.780548 
	C325.727020,391.646606 329.860962,384.547791 333.853577,377.370361 
	C339.636383,366.974823 345.316925,356.522369 351.619843,345.698547 
	C361.463104,327.809143 371.306396,309.919708 381.708832,291.649719 
	C384.301300,287.079285 386.961823,282.545898 389.472321,277.930847 
	C395.063049,267.653473 400.578796,257.335266 406.681824,246.751083 
	C407.137756,245.856384 407.593719,244.961685 408.554169,243.729477 
	C408.754913,243.161148 408.955627,242.592834 409.708771,241.624542 
	C415.484955,231.115326 421.261139,220.606094 427.606934,209.690430 
	C434.751312,196.492981 441.895721,183.295532 449.646362,169.753937 
	C455.451141,159.457291 461.339111,149.206253 467.019775,138.841583 
	C469.287872,134.703293 471.098297,130.314163 473.563049,125.969803 
	C473.563049,125.969803 473.997772,125.848221 474.440369,125.809769 
	C474.525085,125.688309 474.702728,125.483940 474.679932,125.458412 
	C474.489624,125.245178 474.262421,125.064850 474.398132,124.310707 
	C474.908020,123.931755 475.628418,123.664154 475.896545,123.157303 
	C480.668732,114.135880 485.386047,105.085419 490.785797,95.879875 
	C494.467255,88.921127 498.148682,81.962379 501.946655,74.175453 
	C502.398468,66.308342 497.667084,62.490032 490.159180,60.059124 
	C481.407593,61.685959 472.656006,63.312790 463.056030,64.980019 
	C457.417999,65.934181 451.780151,66.889412 446.141907,67.842262 
	C437.443939,69.312210 428.745697,70.780510 419.294220,72.452370 
	C400.791107,75.933823 382.298920,79.475601 363.773010,82.831116 
	C361.022491,83.329300 358.112915,82.949249 355.061005,82.186752 
	C356.631165,76.770348 358.201355,71.353951 359.949280,65.159943 
	C361.310455,59.799240 362.671661,54.438541 364.678284,48.671040 
	C366.722626,40.767902 368.766968,32.864761 370.990082,24.230379 
	C372.144958,21.004025 373.475616,17.827719 374.412018,14.539158 
	C375.696869,10.026841 371.478241,5.249278 366.954498,6.121896 
	C352.794830,8.853257 338.665009,11.738832 324.517578,14.533973 
	C303.408295,18.704571 282.301270,22.887140 261.179535,26.993858 
	C240.068588,31.098475 218.929123,35.057148 197.828201,39.212017 
	C192.349915,40.290714 190.664536,43.008160 190.995667,48.939091 
	C191.088394,50.599880 191.110886,52.264595 191.036316,54.798023 
	C190.747574,60.193653 190.458817,65.589287 189.875763,71.622719 
	C189.528671,77.414055 189.181580,83.205383 188.031067,88.973053 
	C183.394165,88.299278 178.757248,87.625496 173.598114,86.344460 
	C172.002655,86.030800 170.414246,85.674194 168.810593,85.410362 
	C157.559540,83.559341 146.305359,81.727463 134.519150,79.295479 
	C122.670151,77.249458 110.821144,75.203430 98.156906,73.026672 
	C96.885017,72.704491 95.629921,72.268112 94.338570,72.078339 
	C84.738129,70.667488 75.084564,69.563622 65.536446,67.864555 
	C52.909386,65.617599 40.358494,62.939484 27.784395,60.399506 
	C22.814999,59.395683 18.328964,60.620552 15.268625,64.448837 
	C12.296851,68.166328 10.391757,72.593613 12.998957,77.562195 
	C15.855899,83.006729 18.475698,88.582848 21.504244,93.928604 
	C26.864986,103.390976 32.456791,112.722450 38.259056,122.727547 
	C42.488598,129.854858 46.718140,136.982162 51.038071,144.810898 
	C52.137001,146.789703 53.176533,148.804398 54.346001,150.740601 
	C57.853436,156.547638 61.411617,162.324036 65.039207,168.823700 
	C70.355400,178.273193 75.671585,187.722702 81.293945,197.776047 
	C86.182365,206.224838 91.070786,214.673630 96.043907,223.826508 
	C100.322609,231.232224 104.601311,238.637924 109.208679,246.666763 
	C113.432732,253.791946 117.656776,260.917145 122.023354,268.751312 
	C125.977936,275.517090 129.932526,282.282867 134.015686,289.761719 
	C137.067673,295.160461 140.119644,300.559174 143.293915,306.638062 
	C145.824982,310.776062 148.356033,314.914093 151.012878,319.763123 
	C152.993835,323.214050 154.974777,326.664948 157.266190,330.730469 
z"/>
<path fill="#67A1FF" opacity="1.000000" stroke="none" 
	d="
M80.987762,197.172195 
	C75.671585,187.722702 70.355400,178.273193 65.237770,168.225311 
	C73.119301,162.117310 80.847549,156.669540 88.476227,151.085739 
	C106.818924,137.659836 125.180176,124.257660 143.404495,110.672279 
	C153.774612,102.941833 163.890167,94.869881 174.120346,86.951714 
	C178.757248,87.625496 183.394165,88.299278 188.518692,89.245865 
	C189.067947,89.691170 189.129593,89.863655 189.125290,90.484985 
	C188.743759,97.955956 188.428146,104.978073 188.007324,112.402863 
	C187.587448,115.534721 187.272766,118.263916 186.647095,120.862175 
	C184.820190,121.048103 182.991562,120.925934 181.836182,121.748917 
	C168.577621,131.193054 155.397324,140.747849 142.243515,150.338089 
	C122.665092,164.612457 103.107605,178.915817 83.609863,193.299881 
	C82.427246,194.172363 81.847839,195.862503 80.987762,197.172195 
z"/>
<path fill="#6F96FF" opacity="1.000000" stroke="none" 
	d="
M81.140854,197.474121 
	C81.847839,195.862503 82.427246,194.172363 83.609863,193.299881 
	C103.107605,178.915817 122.665092,164.612457 142.243515,150.338089 
	C155.397324,140.747849 168.577621,131.193054 181.836182,121.748917 
	C182.991562,120.925934 184.820190,121.048103 186.708771,121.323029 
	C186.810623,128.268280 186.539795,134.621765 186.174347,141.427948 
	C185.663925,147.919754 185.248093,153.958817 184.446594,160.001068 
	C181.782608,160.848221 179.162186,161.225540 177.277725,162.606888 
	C152.937576,180.448502 128.694748,198.423019 104.450241,216.394867 
	C101.550789,218.544159 98.786278,220.875473 95.959213,223.122437 
	C91.070786,214.673630 86.182365,206.224838 81.140854,197.474121 
z"/>
<path fill="#FFD62D" opacity="1.000000" stroke="none" 
	d="
M188.112549,112.000183 
	C188.428146,104.978073 188.743759,97.955956 189.334869,90.693977 
	C190.182800,90.742622 190.829285,91.371880 191.315979,91.266106 
	C195.459763,90.365486 199.540390,89.146957 203.705124,88.375717 
	C212.189224,86.804634 220.689926,85.286911 229.227875,84.051880 
	C240.735382,82.387283 252.302780,81.137016 263.810516,79.473824 
	C275.309235,77.811913 286.752472,75.769310 298.244324,74.056541 
	C316.141846,71.389076 334.055511,68.828506 351.974060,66.305847 
	C354.539673,65.944656 357.170746,66.048782 359.771545,65.937553 
	C358.201355,71.353951 356.631165,76.770348 354.972473,82.881500 
	C353.902405,85.717659 352.920898,87.859062 351.556335,89.914680 
	C349.374451,89.660042 347.525574,89.133865 345.784424,89.377533 
	C328.036896,91.861145 310.307861,94.476456 292.571808,97.042297 
	C269.246368,100.416763 245.921127,103.792946 222.592056,107.142357 
	C211.103210,108.791840 199.605988,110.382767 188.112549,112.000183 
z"/>
<path fill="#FFDC33" opacity="1.000000" stroke="none" 
	d="
M190.170059,70.984917 
	C190.458817,65.589287 190.747574,60.193653 191.302917,54.071022 
	C192.916046,52.565369 194.189621,51.299526 195.620636,51.085243 
	C206.938599,49.390499 218.298279,47.976192 229.622284,46.319660 
	C243.414993,44.301994 257.170898,42.030548 270.969269,40.054218 
	C288.209381,37.584919 305.503265,35.482323 322.724121,32.890461 
	C338.787109,30.472878 354.784851,27.621853 370.811310,24.961622 
	C368.766968,32.864761 366.722626,40.767902 364.007172,48.658848 
	C360.045715,48.563965 356.691986,48.025627 353.475372,48.473011 
	C333.576050,51.240719 313.728577,54.383091 293.824249,57.112041 
	C259.288025,61.847076 224.723007,66.371925 190.170059,70.984917 
z"/>
<path fill="#5FABFF" opacity="1.000000" stroke="none" 
	d="
M173.859222,86.648087 
	C163.890167,94.869881 153.774612,102.941833 143.404495,110.672279 
	C125.180176,124.257660 106.818924,137.659836 88.476227,151.085739 
	C80.847549,156.669540 73.119301,162.117310 65.193161,167.869659 
	C61.411617,162.324036 57.853436,156.547638 54.346001,150.740601 
	C53.176533,148.804398 52.137001,146.789703 51.187592,144.179764 
	C61.970409,135.646484 72.578323,127.709892 83.243126,119.850502 
	C98.169464,108.850578 113.183067,97.968384 128.046631,86.884659 
	C130.664734,84.932343 132.731033,82.240036 135.052170,79.889465 
	C146.305359,81.727463 157.559540,83.559341 168.810593,85.410362 
	C170.414246,85.674194 172.002655,86.030800 173.859222,86.648087 
z"/>
<path fill="#B63DFF" opacity="1.000000" stroke="none" 
	d="
M351.041077,346.094208 
	C345.316925,356.522369 339.636383,366.974823 333.853577,377.370361 
	C329.860962,384.547791 325.727020,391.646606 321.221436,398.649292 
	C319.208069,398.570862 317.332794,398.095642 316.110291,398.782410 
	C313.236816,400.396667 310.661530,402.547455 307.989441,404.513611 
	C284.747406,421.615326 261.559143,438.790833 238.219513,455.758209 
	C234.773666,458.263245 233.661301,461.203125 233.975449,465.103241 
	C229.674835,457.642456 225.374237,450.181671 221.109406,442.068329 
	C226.836761,436.737030 232.599213,432.141296 238.199387,427.355591 
	C243.504807,422.821777 250.585754,420.072235 253.450134,412.900574 
	C258.473267,416.462921 261.368103,416.223145 264.359406,411.614899 
	C267.016113,407.522095 269.199219,403.121826 271.996338,398.874908 
	C274.524750,398.084442 276.869293,397.614380 278.726685,396.399567 
	C282.886108,393.679047 286.817505,390.607300 290.816345,387.644348 
	C309.100159,374.097046 327.345154,360.496887 345.716797,347.069885 
	C347.028564,346.111176 349.245178,346.390503 351.041077,346.094208 
z"/>
<path fill="#BC36FF" opacity="1.000000" stroke="none" 
	d="
M234.120819,465.416748 
	C233.661301,461.203125 234.773666,458.263245 238.219513,455.758209 
	C261.559143,438.790833 284.747406,421.615326 307.989441,404.513611 
	C310.661530,402.547455 313.236816,400.396667 316.110291,398.782410 
	C317.332794,398.095642 319.208069,398.570862 320.915894,398.814850 
	C317.627625,405.244049 314.179626,411.359650 310.798553,417.512054 
	C301.157623,435.055206 291.551117,452.617279 281.915802,470.163574 
	C278.269867,476.802948 274.707153,483.492523 270.884216,490.029205 
	C265.222015,499.710846 252.771759,498.941101 246.928574,488.593109 
	C242.645218,481.007477 238.482605,473.353668 234.120819,465.416748 
z"/>
<path fill="#FFD930" opacity="1.000000" stroke="none" 
	d="
M190.022919,71.303818 
	C224.723007,66.371925 259.288025,61.847076 293.824249,57.112041 
	C313.728577,54.383091 333.576050,51.240719 353.475372,48.473011 
	C356.691986,48.025627 360.045715,48.563965 363.684448,48.862247 
	C362.671661,54.438541 361.310455,59.799240 359.860413,65.548752 
	C357.170746,66.048782 354.539673,65.944656 351.974060,66.305847 
	C334.055511,68.828506 316.141846,71.389076 298.244324,74.056541 
	C286.752472,75.769310 275.309235,77.811913 263.810516,79.473824 
	C252.302780,81.137016 240.735382,82.387283 229.227875,84.051880 
	C220.689926,85.286911 212.189224,86.804634 203.705124,88.375717 
	C199.540390,89.146957 195.459763,90.365486 191.315979,91.266106 
	C190.829285,91.371880 190.182800,90.742622 189.400818,90.245117 
	C189.129593,89.863655 189.067947,89.691170 188.920410,89.257706 
	C189.181580,83.205383 189.528671,77.414055 190.022919,71.303818 
z"/>
<path fill="#FFE14B" opacity="1.000000" stroke="none" 
	d="
M370.900696,24.596001 
	C354.784851,27.621853 338.787109,30.472878 322.724121,32.890461 
	C305.503265,35.482323 288.209381,37.584919 270.969269,40.054218 
	C257.170898,42.030548 243.414993,44.301994 229.622284,46.319660 
	C218.298279,47.976192 206.938599,49.390499 195.620636,51.085243 
	C194.189621,51.299526 192.916046,52.565369 191.367569,53.635765 
	C191.110886,52.264595 191.088394,50.599880 190.995667,48.939091 
	C190.664536,43.008160 192.349915,40.290714 197.828201,39.212017 
	C218.929123,35.057148 240.068588,31.098475 261.179535,26.993858 
	C282.301270,22.887140 303.408295,18.704571 324.517578,14.533973 
	C338.665009,11.738832 352.794830,8.853257 366.954498,6.121896 
	C371.478241,5.249278 375.696869,10.026841 374.412018,14.539158 
	C373.475616,17.827719 372.144958,21.004025 370.900696,24.596001 
z"/>
<path fill="#52BBFF" opacity="1.000000" stroke="none" 
	d="
M37.951900,122.108704 
	C32.456791,112.722450 26.864986,103.390976 21.504244,93.928604 
	C18.475698,88.582848 15.855899,83.006729 12.998957,77.562195 
	C10.391757,72.593613 12.296851,68.166328 15.268625,64.448837 
	C18.328964,60.620552 22.814999,59.395683 27.784395,60.399506 
	C40.358494,62.939484 52.909386,65.617599 65.536446,67.864555 
	C75.084564,69.563622 84.738129,70.667488 94.338570,72.078339 
	C95.629921,72.268112 96.885017,72.704491 98.419464,73.399429 
	C96.710457,76.119949 95.088577,78.924934 92.711731,80.742767 
	C74.541267,94.639679 56.223717,108.344292 37.951900,122.108704 
z"/>
<path fill="#B045FF" opacity="1.000000" stroke="none" 
	d="
M351.330444,345.896362 
	C349.245178,346.390503 347.028564,346.111176 345.716797,347.069885 
	C327.345154,360.496887 309.100159,374.097046 290.816345,387.644348 
	C286.817505,390.607300 282.886108,393.679047 278.726685,396.399567 
	C276.869293,397.614380 274.524750,398.084442 272.098206,398.525055 
	C279.894318,382.103790 287.993500,366.049957 296.467529,349.986450 
	C298.926422,349.059998 301.263672,348.488342 303.055939,347.173706 
	C324.030029,331.788727 344.851044,316.194244 365.890411,300.899841 
	C370.624390,297.458496 376.045074,294.961853 381.149658,292.030304 
	C371.306396,309.919708 361.463104,327.809143 351.330444,345.896362 
z"/>
<path fill="#768DFF" opacity="1.000000" stroke="none" 
	d="
M96.001564,223.474472 
	C98.786278,220.875473 101.550789,218.544159 104.450241,216.394867 
	C128.694748,198.423019 152.937576,180.448502 177.277725,162.606888 
	C179.162186,161.225540 181.782608,160.848221 184.528687,160.252197 
	C185.047424,160.668716 185.098434,160.837296 185.062164,161.440186 
	C184.261032,172.266647 183.547180,182.658783 182.495972,193.124817 
	C180.129120,194.291718 177.943695,195.170258 176.096130,196.513504 
	C166.182281,203.721191 156.356934,211.050507 146.492661,218.326508 
	C133.959320,227.571228 121.417938,236.805099 108.880020,246.043640 
	C104.601311,238.637924 100.322609,231.232224 96.001564,223.474472 
z"/>
<path fill="#9F5AFE" opacity="1.000000" stroke="none" 
	d="
M187.167603,382.964844 
	C183.112411,375.869415 179.057220,368.774017 175.283142,361.206299 
	C178.484329,359.173096 181.626953,357.920227 184.286392,355.998627 
	C196.647308,347.067139 208.949371,338.049927 221.128296,328.872040 
	C233.302368,319.697845 245.370026,310.378143 257.310425,300.903015 
	C259.012451,299.552368 262.630890,298.435822 260.827271,294.519470 
	C264.922333,293.902100 268.733582,293.531342 272.733215,293.491699 
	C273.577026,295.802795 275.072357,297.935394 274.744995,299.736755 
	C273.178131,308.358490 271.117432,316.890503 268.961975,325.213013 
	C266.783966,325.423645 264.495239,325.348053 263.026642,326.408386 
	C245.919693,338.759521 228.882599,351.209442 211.943069,363.789551 
	C203.560806,370.014648 195.418488,376.562836 187.167603,382.964844 
z"/>
<path fill="#9B60FF" opacity="1.000000" stroke="none" 
	d="
M473.117035,126.039215 
	C471.098297,130.314163 469.287872,134.703293 467.019775,138.841583 
	C461.339111,149.206253 455.451141,159.457291 449.074829,169.737274 
	C446.637329,170.461060 444.511230,170.847519 442.946198,171.997543 
	C429.652222,181.766449 416.490875,191.715622 403.227051,201.525864 
	C394.498962,207.981354 385.661316,214.288574 376.883942,220.677536 
	C370.341949,225.439392 363.863464,230.290848 357.241302,234.937973 
	C356.125610,235.720901 354.424194,235.669083 353.055725,235.645569 
	C354.435638,232.535324 355.753174,229.782486 357.335083,226.810486 
	C362.643585,216.696762 367.687714,206.802200 373.119690,196.898468 
	C375.778625,195.942322 378.338593,195.392639 380.274689,193.984940 
	C394.650909,183.532349 408.865173,172.857437 423.204346,162.353455 
	C439.802399,150.194778 456.476135,138.139420 473.117035,126.039215 
z"/>
<path fill="#A94DFF" opacity="1.000000" stroke="none" 
	d="
M381.429260,291.840027 
	C376.045074,294.961853 370.624390,297.458496 365.890411,300.899841 
	C344.851044,316.194244 324.030029,331.788727 303.055939,347.173706 
	C301.263672,348.488342 298.926422,349.059998 296.504883,349.638763 
	C299.667542,342.202972 303.167603,335.105225 306.868042,327.707153 
	C310.600769,320.567841 314.133148,313.728790 318.054901,306.884796 
	C321.222626,305.480560 324.259888,304.436096 326.739105,302.626984 
	C350.665741,285.167328 374.465454,267.533600 398.414246,250.104645 
	C400.581573,248.527328 403.536133,248.031677 406.125092,247.033707 
	C400.578796,257.335266 395.063049,267.653473 389.472321,277.930847 
	C386.961823,282.545898 384.301300,287.079285 381.429260,291.840027 
z"/>
<path fill="#58B3FF" opacity="1.000000" stroke="none" 
	d="
M38.105480,122.418121 
	C56.223717,108.344292 74.541267,94.639679 92.711731,80.742767 
	C95.088577,78.924934 96.710457,76.119949 98.827080,73.464798 
	C110.821144,75.203430 122.670151,77.249458 134.785660,79.592468 
	C132.731033,82.240036 130.664734,84.932343 128.046631,86.884659 
	C113.183067,97.968384 98.169464,108.850578 83.243126,119.850502 
	C72.578323,127.709892 61.970409,135.646484 51.142395,143.829056 
	C46.718140,136.982162 42.488598,129.854858 38.105480,122.418121 
z"/>
<path fill="#8976FE" opacity="1.000000" stroke="none" 
	d="
M143.171631,305.957916 
	C140.119644,300.559174 137.067673,295.160461 134.242523,289.224487 
	C143.642151,281.794342 152.755737,274.820862 162.000854,268.026306 
	C178.207199,256.115692 194.609543,244.467438 210.654358,232.344757 
	C214.047348,229.781189 216.255920,225.650040 219.356216,222.031616 
	C225.274521,220.556442 230.799240,218.980362 236.433167,218.116486 
	C241.598022,217.324539 244.634995,220.825134 243.668213,225.981094 
	C242.968735,229.711517 241.925644,233.377502 240.749237,236.876297 
	C238.229355,237.352951 235.605133,237.486664 233.822067,238.779968 
	C211.545792,254.937866 189.359116,271.220093 167.222763,287.569672 
	C159.106262,293.564423 151.183029,299.820831 143.171631,305.957916 
z"/>
<path fill="#9F5AFE" opacity="1.000000" stroke="none" 
	d="
M352.993408,236.002960 
	C354.424194,235.669083 356.125610,235.720901 357.241302,234.937973 
	C363.863464,230.290848 370.341949,225.439392 376.883942,220.677536 
	C385.661316,214.288574 394.498962,207.981354 403.227051,201.525864 
	C416.490875,191.715622 429.652222,181.766449 442.946198,171.997543 
	C444.511230,170.847519 446.637329,170.461060 448.771729,169.909363 
	C441.895721,183.295532 434.751312,196.492981 427.043396,209.693756 
	C424.838409,210.089249 422.940887,210.085587 421.604828,210.949860 
	C417.990692,213.287811 414.612366,215.990814 411.145538,218.555832 
	C390.202637,234.050858 369.324860,249.635239 348.266724,264.971985 
	C343.940857,268.122528 338.942627,270.349915 334.292419,272.653809 
	C336.984161,267.082703 339.637787,261.860535 342.549255,256.382874 
	C346.202545,249.419235 349.597992,242.711105 352.993408,236.002960 
z"/>
<path fill="#9962FE" opacity="1.000000" stroke="none" 
	d="
M260.543457,294.766083 
	C262.630890,298.435822 259.012451,299.552368 257.310425,300.903015 
	C245.370026,310.378143 233.302368,319.697845 221.128296,328.872040 
	C208.949371,338.049927 196.647308,347.067139 184.286392,355.998627 
	C181.626953,357.920227 178.484329,359.173096 175.245270,360.896423 
	C170.964905,354.308258 167.003510,347.557709 163.267334,340.234131 
	C172.736374,333.212280 182.004456,326.797974 191.218094,320.306335 
	C204.099319,311.230560 216.939957,302.097198 229.826736,293.400696 
	C229.985580,300.377167 233.105347,302.779480 239.259521,300.998688 
	C246.360718,298.943817 253.449371,296.845520 260.543457,294.766083 
z"/>
<path fill="#7D85FF" opacity="1.000000" stroke="none" 
	d="
M109.044350,246.355209 
	C121.417938,236.805099 133.959320,227.571228 146.492661,218.326508 
	C156.356934,211.050507 166.182281,203.721191 176.096130,196.513504 
	C177.943695,195.170258 180.129120,194.291718 182.580963,193.102539 
	C183.003326,193.006378 183.167984,192.945053 183.097717,193.398773 
	C182.676208,201.901672 182.324997,209.950836 181.772827,218.324310 
	C181.647888,221.101303 181.723923,223.553970 181.453064,226.040253 
	C179.805984,226.764496 178.394272,227.304062 177.222733,228.168961 
	C164.377930,237.651596 151.625061,247.259674 138.727310,256.669312 
	C133.257431,260.659912 127.504898,264.263062 121.880829,268.042328 
	C117.656776,260.917145 113.432732,253.791946 109.044350,246.355209 
z"/>
<path fill="#8976FE" opacity="1.000000" stroke="none" 
	d="
M420.047577,72.249504 
	C428.745697,70.780510 437.443939,69.312210 446.141907,67.842262 
	C451.780151,66.889412 457.417999,65.934181 463.677185,65.241776 
	C463.368713,67.332993 462.912384,69.797089 461.438263,70.896477 
	C440.375397,86.605148 419.145721,102.089989 398.049530,117.754395 
	C395.735626,119.472549 393.997894,121.966675 391.667297,124.311157 
	C378.071411,127.107498 364.819885,129.798416 351.512177,132.174728 
	C349.336914,132.563156 346.913818,131.563950 344.921204,131.022736 
	C351.286102,126.478561 357.367004,122.161194 363.378143,117.748756 
	C381.274078,104.612244 399.189911,91.501350 416.941895,78.172577 
	C418.551880,76.963730 419.039001,74.259369 420.047577,72.249504 
z"/>
<path fill="#A453FF" opacity="1.000000" stroke="none" 
	d="
M334.254303,273.002777 
	C338.942627,270.349915 343.940857,268.122528 348.266724,264.971985 
	C369.324860,249.635239 390.202637,234.050858 411.145538,218.555832 
	C414.612366,215.990814 417.990692,213.287811 421.604828,210.949860 
	C422.940887,210.085587 424.838409,210.089249 426.758606,209.896973 
	C421.261139,220.606094 415.484955,231.115326 409.229218,242.040192 
	C408.516327,242.992874 408.282990,243.529938 408.049683,244.067001 
	C407.593719,244.961685 407.137756,245.856384 406.403442,246.892395 
	C403.536133,248.031677 400.581573,248.527328 398.414246,250.104645 
	C374.465454,267.533600 350.665741,285.167328 326.739105,302.626984 
	C324.259888,304.436096 321.222626,305.480560 318.142303,306.531036 
	C321.117767,299.453949 324.395233,292.725647 327.881500,285.704315 
	C330.144989,281.275116 332.199646,277.138947 334.254303,273.002777 
z"/>
<path fill="#847DFE" opacity="1.000000" stroke="none" 
	d="
M121.952087,268.396820 
	C127.504898,264.263062 133.257431,260.659912 138.727310,256.669312 
	C151.625061,247.259674 164.377930,237.651596 177.222733,228.168961 
	C178.394272,227.304062 179.805984,226.764496 181.644852,226.361420 
	C184.894669,228.921509 187.728928,229.298782 191.282776,228.401169 
	C200.458511,226.083588 209.759354,224.261276 219.010223,222.241150 
	C216.255920,225.650040 214.047348,229.781189 210.654358,232.344757 
	C194.609543,244.467438 178.207199,256.115692 162.000854,268.026306 
	C152.755737,274.820862 143.642151,281.794342 134.178223,288.867950 
	C129.932526,282.282867 125.977936,275.517090 121.952087,268.396820 
z"/>
<path fill="#A453FF" opacity="1.000000" stroke="none" 
	d="
M187.123230,383.312378 
	C195.418488,376.562836 203.560806,370.014648 211.943069,363.789551 
	C228.882599,351.209442 245.919693,338.759521 263.026642,326.408386 
	C264.495239,325.348053 266.783966,325.423645 268.982117,325.596649 
	C268.864105,328.817291 268.455688,331.412903 267.841553,334.331909 
	C266.328369,340.768524 265.020935,346.881653 263.352478,353.007233 
	C261.370819,353.747681 259.569427,354.225677 258.159485,355.245148 
	C250.241135,360.970642 242.380844,366.778412 234.569046,372.648987 
	C221.990936,382.101379 209.466034,391.624603 196.918655,401.117889 
	C193.638718,395.298553 190.358780,389.479248 187.123230,383.312378 
z"/>
<path fill="#9962FE" opacity="1.000000" stroke="none" 
	d="
M473.340027,126.004501 
	C456.476135,138.139420 439.802399,150.194778 423.204346,162.353455 
	C408.865173,172.857437 394.650909,183.532349 380.274689,193.984940 
	C378.338593,195.392639 375.778625,195.942322 373.191895,196.567551 
	C373.504486,194.832260 374.132721,193.418701 374.963593,191.709869 
	C378.453217,184.944611 381.740173,178.474655 385.383850,171.972885 
	C386.907379,171.367920 388.201996,170.963623 389.219543,170.193329 
	C394.500031,166.195908 399.630737,161.997986 404.958038,158.065521 
	C426.980255,141.809265 449.034027,125.595474 471.122772,109.429726 
	C477.372375,104.855919 483.779999,100.498085 490.115173,96.041214 
	C485.386047,105.085419 480.668732,114.135880 475.896545,123.157303 
	C475.628418,123.664154 474.908020,123.931755 474.209167,124.836060 
	C474.020203,125.361404 473.997772,125.848221 473.997772,125.848221 
	C473.997772,125.848221 473.563049,125.969803 473.340027,126.004501 
z"/>
<path fill="#847DFE" opacity="1.000000" stroke="none" 
	d="
M419.670898,72.350937 
	C419.039001,74.259369 418.551880,76.963730 416.941895,78.172577 
	C399.189911,91.501350 381.274078,104.612244 363.378143,117.748756 
	C357.367004,122.161194 351.286102,126.478561 344.591797,130.883728 
	C343.507141,128.489182 342.553619,126.007088 342.753967,123.621941 
	C343.026886,120.373177 344.180359,117.198387 345.209686,113.718170 
	C347.621857,105.629799 349.780609,97.815132 351.939331,90.000473 
	C352.920898,87.859062 353.902405,85.717659 355.080444,83.275879 
	C358.112915,82.949249 361.022491,83.329300 363.773010,82.831116 
	C382.298920,79.475601 400.791107,75.933823 419.670898,72.350937 
z"/>
<path fill="#8E70FF" opacity="1.000000" stroke="none" 
	d="
M143.232773,306.297974 
	C151.183029,299.820831 159.106262,293.564423 167.222763,287.569672 
	C189.359116,271.220093 211.545792,254.937866 233.822067,238.779968 
	C235.605133,237.486664 238.229355,237.352951 240.791260,237.242493 
	C241.091812,238.535172 241.063812,239.265701 240.904022,240.365784 
	C239.577301,245.841980 238.382370,250.948639 236.797058,256.053833 
	C234.746567,256.693726 232.855316,257.015747 231.461288,258.024750 
	C213.273621,271.189026 195.038345,284.293091 177.071152,297.754089 
	C168.074280,304.494568 159.598541,311.930634 150.887115,319.052094 
	C148.356033,314.914093 145.824982,310.776062 143.232773,306.297974 
z"/>
<path fill="#9369FF" opacity="1.000000" stroke="none" 
	d="
M490.450500,95.960541 
	C483.779999,100.498085 477.372375,104.855919 471.122772,109.429726 
	C449.034027,125.595474 426.980255,141.809265 404.958038,158.065521 
	C399.630737,161.997986 394.500031,166.195908 389.219543,170.193329 
	C388.201996,170.963623 386.907379,171.367920 385.432373,171.616852 
	C385.787811,169.542267 386.451508,167.791901 387.420044,165.878586 
	C390.730469,160.113144 393.736023,154.510681 397.095490,148.849548 
	C398.322083,148.334763 399.275635,147.987350 400.055817,147.406891 
	C431.584869,123.949554 463.070770,100.434006 494.682465,77.088768 
	C496.556335,75.704903 499.424591,75.667564 501.830109,75.003632 
	C498.148682,81.962379 494.467255,88.921127 490.450500,95.960541 
z"/>
<path fill="#A94DFF" opacity="1.000000" stroke="none" 
	d="
M197.051666,401.389160 
	C209.466034,391.624603 221.990936,382.101379 234.569046,372.648987 
	C242.380844,366.778412 250.241135,360.970642 258.159485,355.245148 
	C259.569427,354.225677 261.370819,353.747681 263.365295,353.390472 
	C261.599304,363.541595 259.459473,373.321930 256.941895,383.109528 
	C255.246231,383.718384 253.769867,384.107819 252.635605,384.955200 
	C244.042694,391.374725 235.434418,397.778900 226.996811,404.399292 
	C220.536713,409.468109 214.318649,414.845337 207.992920,420.085388 
	C204.390167,413.943726 200.787415,407.802063 197.051666,401.389160 
z"/>
<path fill="#906DFF" opacity="1.000000" stroke="none" 
	d="
M501.888367,74.589539 
	C499.424591,75.667564 496.556335,75.704903 494.682465,77.088768 
	C463.070770,100.434006 431.584869,123.949554 400.055817,147.406891 
	C399.275635,147.987350 398.322083,148.334763 397.172424,148.491638 
	C399.313965,143.149734 401.732422,138.107101 404.410187,132.854065 
	C404.713776,130.450958 404.758057,128.258224 405.160645,125.984894 
	C413.614441,120.428490 421.893341,115.202728 429.768768,109.426849 
	C448.395020,95.766197 466.894989,81.929924 485.263550,67.925339 
	C487.720581,66.052063 489.120941,62.792873 491.010651,60.175476 
	C497.667084,62.490032 502.398468,66.308342 501.888367,74.589539 
z"/>
<path fill="#9369FF" opacity="1.000000" stroke="none" 
	d="
M229.797943,292.988464 
	C216.939957,302.097198 204.099319,311.230560 191.218094,320.306335 
	C182.004456,326.797974 172.736374,333.212280 163.220642,339.879028 
	C161.054550,336.974762 159.160370,333.852631 157.147354,330.048828 
	C158.982697,326.838959 160.497177,323.724884 162.960999,321.875732 
	C181.685379,307.822479 200.521149,293.913696 219.502426,280.209564 
	C223.968933,276.984802 229.121475,274.710266 233.992920,272.409668 
	C232.617615,279.543304 231.207794,286.265869 229.797943,292.988464 
z"/>
<path fill="#8E70FF" opacity="1.000000" stroke="none" 
	d="
M490.584900,60.117302 
	C489.120941,62.792873 487.720581,66.052063 485.263550,67.925339 
	C466.894989,81.929924 448.395020,95.766197 429.768768,109.426849 
	C421.893341,115.202728 413.614441,120.428490 404.848694,125.824043 
	C400.627960,121.403664 396.130157,124.089478 391.992920,124.100891 
	C393.997894,121.966675 395.735626,119.472549 398.049530,117.754395 
	C419.145721,102.089989 440.375397,86.605148 461.438263,70.896477 
	C462.912384,69.797089 463.368713,67.332993 464.101379,65.221573 
	C472.656006,63.312790 481.407593,61.685959 490.584900,60.117302 
z"/>
<path fill="#B045FF" opacity="1.000000" stroke="none" 
	d="
M208.154114,420.389099 
	C214.318649,414.845337 220.536713,409.468109 226.996811,404.399292 
	C235.434418,397.778900 244.042694,391.374725 252.635605,384.955200 
	C253.769867,384.107819 255.246231,383.718384 256.940979,383.523499 
	C255.681244,392.244690 253.986877,400.548645 252.472809,408.885345 
	C252.254639,410.086761 252.904114,411.445709 253.152069,412.731750 
	C250.585754,420.072235 243.504807,422.821777 238.199387,427.355591 
	C232.599213,432.141296 226.836761,436.737030 221.058777,441.755341 
	C216.753326,434.960876 212.534302,427.826874 208.154114,420.389099 
z"/>
<path fill="#906DFF" opacity="1.000000" stroke="none" 
	d="
M233.958405,271.998596 
	C229.121475,274.710266 223.968933,276.984802 219.502426,280.209564 
	C200.521149,293.913696 181.685379,307.822479 162.960999,321.875732 
	C160.497177,323.724884 158.982697,326.838959 156.992126,329.741516 
	C154.974777,326.664948 152.993835,323.214050 150.949997,319.407593 
	C159.598541,311.930634 168.074280,304.494568 177.071152,297.754089 
	C195.038345,284.293091 213.273621,271.189026 231.461288,258.024750 
	C232.855316,257.015747 234.746567,256.693726 236.819427,256.471497 
	C236.782104,259.909821 236.332077,262.928986 235.661957,266.225922 
	C234.947372,268.335297 234.452881,270.166962 233.958405,271.998596 
z"/>
<path fill="#A94DFF" opacity="1.000000" stroke="none" 
	d="
M408.301910,243.898239 
	C408.282990,243.529938 408.516327,242.992874 408.953003,242.240173 
	C408.955627,242.592834 408.754913,243.161148 408.301910,243.898239 
z"/>
<path fill="#9B60FF" opacity="1.000000" stroke="none" 
	d="
M474.219055,125.828995 
	C473.997772,125.848221 474.020203,125.361404 474.033264,125.117996 
	C474.262421,125.064850 474.489624,125.245178 474.679932,125.458412 
	C474.702728,125.483940 474.525085,125.688309 474.219055,125.828995 
z"/>
<path fill="#FFD22A" opacity="1.000000" stroke="none" 
	d="
M351.556335,89.914673 
	C349.780609,97.815132 347.621857,105.629799 344.856689,113.622925 
	C339.227875,113.688057 334.120575,112.932983 329.199249,113.583832 
	C315.403259,115.408333 301.701202,117.929779 287.930054,119.958801 
	C271.494598,122.380371 255.023529,124.559464 238.572388,126.875526 
	C226.571335,128.565079 214.589066,130.392746 202.576004,131.990356 
	C195.909149,132.876953 189.053635,133.157791 186.268951,140.975235 
	C186.539795,134.621765 186.810623,128.268280 187.019775,121.453957 
	C187.272766,118.263916 187.587448,115.534721 188.007324,112.402863 
	C199.605988,110.382767 211.103210,108.791840 222.592056,107.142357 
	C245.921127,103.792946 269.246368,100.416763 292.571808,97.042297 
	C310.307861,94.476456 328.036896,91.861145 345.784424,89.377533 
	C347.525574,89.133865 349.374451,89.660042 351.556335,89.914673 
z"/>
<path fill="#FECD25" opacity="1.000000" stroke="none" 
	d="
M186.174347,141.427948 
	C189.053635,133.157791 195.909149,132.876953 202.576004,131.990356 
	C214.589066,130.392746 226.571335,128.565079 238.572388,126.875526 
	C255.023529,124.559464 271.494598,122.380371 287.930054,119.958801 
	C301.701202,117.929779 315.403259,115.408333 329.199249,113.583832 
	C334.120575,112.932983 339.227875,113.688057 344.603271,113.896637 
	C344.180359,117.198387 343.026886,120.373177 342.753967,123.621941 
	C342.553619,126.007088 343.507141,128.489182 344.275879,131.067078 
	C346.913818,131.563950 349.336914,132.563156 351.512177,132.174728 
	C364.819885,129.798416 378.071411,127.107498 391.667297,124.311150 
	C396.130157,124.089478 400.627960,121.403664 404.490417,125.904648 
	C404.758057,128.258224 404.713776,130.450958 404.094604,132.668335 
	C399.638062,129.160202 395.870331,132.703186 392.172302,133.129684 
	C381.012390,134.416672 369.928345,136.359894 358.812988,138.035904 
	C356.519745,138.381683 354.226837,138.757050 351.920471,138.983749 
	C342.854828,139.874878 333.738434,140.386078 324.724915,141.641541 
	C309.105957,143.817047 293.565613,146.550354 277.962189,148.845245 
	C263.344116,150.995224 248.696365,152.951569 234.044678,154.862732 
	C217.756302,156.987335 201.448700,158.964508 185.149460,161.005875 
	C185.098434,160.837296 185.047424,160.668716 184.914337,160.249023 
	C185.248093,153.958817 185.663925,147.919754 186.174347,141.427948 
z"/>
<path fill="#FEA906" opacity="1.000000" stroke="none" 
	d="
M253.450134,412.900574 
	C252.904114,411.445709 252.254639,410.086761 252.472809,408.885345 
	C253.986877,400.548645 255.681244,392.244690 257.318726,383.516235 
	C259.459473,373.321930 261.599304,363.541595 263.726318,353.378052 
	C265.020935,346.881653 266.328369,340.768524 268.140381,334.444885 
	C270.789856,336.417847 272.831909,336.923676 275.397308,334.573822 
	C276.502777,333.561249 278.393646,333.258423 279.988892,332.952667 
	C288.871429,331.250061 297.772766,329.645508 306.667664,328.007446 
	C303.167603,335.105225 299.667542,342.202972 296.130066,349.648438 
	C287.993500,366.049957 279.894318,382.103790 271.693237,398.507446 
	C269.199219,403.121826 267.016113,407.522095 264.359406,411.614899 
	C261.368103,416.223145 258.473267,416.462921 253.450134,412.900574 
z"/>
<path fill="#FFC920" opacity="1.000000" stroke="none" 
	d="
M185.062164,161.440186 
	C201.448700,158.964508 217.756302,156.987335 234.044678,154.862732 
	C248.696365,152.951569 263.344116,150.995224 277.962189,148.845245 
	C293.565613,146.550354 309.105957,143.817047 324.724915,141.641541 
	C333.738434,140.386078 342.854828,139.874878 351.920471,138.983749 
	C354.226837,138.757050 356.519745,138.381683 358.812988,138.035904 
	C369.928345,136.359894 381.012390,134.416672 392.172302,133.129684 
	C395.870331,132.703186 399.638062,129.160202 403.835266,132.878723 
	C401.732422,138.107101 399.313965,143.149734 396.818542,148.550293 
	C393.736023,154.510681 390.730469,160.113144 386.949463,165.870453 
	C374.836609,167.171890 363.471985,168.103470 352.170105,169.531738 
	C342.801636,170.715698 333.530243,172.650986 324.174072,173.953506 
	C312.225861,175.616898 300.199982,176.741318 288.272949,178.533203 
	C274.585693,180.589539 261.005646,183.364685 247.312668,185.375839 
	C235.089981,187.171036 222.792831,188.508896 210.498428,189.750198 
	C201.368362,190.672012 192.700836,195.558945 183.167984,192.945053 
	C183.167984,192.945053 183.003326,193.006378 182.918335,193.028656 
	C183.547180,182.658783 184.261032,172.266647 185.062164,161.440186 
z"/>
<path fill="#FFB70F" opacity="1.000000" stroke="none" 
	d="
M233.992920,272.409668 
	C234.452881,270.166962 234.947372,268.335297 235.990997,266.422302 
	C239.078659,266.791168 241.687836,267.858337 244.142624,267.577209 
	C251.869568,266.692444 259.530243,265.244812 267.231476,264.116882 
	C289.915009,260.794647 312.593384,257.430054 335.313263,254.375595 
	C337.498413,254.081802 339.958801,255.835266 342.291382,256.638367 
	C339.637787,261.860535 336.984161,267.082703 334.292419,272.653809 
	C332.199646,277.138947 330.144989,281.275116 327.450989,285.705505 
	C324.488739,286.103241 322.139160,286.017487 319.847260,286.340851 
	C304.073029,288.566284 288.310852,290.877167 272.544800,293.160553 
	C268.733582,293.531342 264.922333,293.902100 260.827271,294.519470 
	C253.449371,296.845520 246.360718,298.943817 239.259521,300.998688 
	C233.105347,302.779480 229.985580,300.377167 229.826752,293.400696 
	C231.207794,286.265869 232.617615,279.543304 233.992920,272.409668 
z"/>
<path fill="#FEB20B" opacity="1.000000" stroke="none" 
	d="
M272.733215,293.491699 
	C288.310852,290.877167 304.073029,288.566284 319.847260,286.340851 
	C322.139160,286.017487 324.488739,286.103241 327.242157,285.998535 
	C324.395233,292.725647 321.117767,299.453949 317.752930,306.536011 
	C314.133148,313.728790 310.600769,320.567841 306.868042,327.707153 
	C297.772766,329.645508 288.871429,331.250061 279.988892,332.952667 
	C278.393646,333.258423 276.502777,333.561249 275.397308,334.573822 
	C272.831909,336.923676 270.789856,336.417847 268.346130,334.121460 
	C268.455688,331.412903 268.864105,328.817291 269.252380,325.838074 
	C271.117432,316.890503 273.178131,308.358490 274.744995,299.736755 
	C275.072357,297.935394 273.577026,295.802795 272.733215,293.491699 
z"/>
<path fill="#FFC018" opacity="1.000000" stroke="none" 
	d="
M241.035812,239.996246 
	C241.063812,239.265701 241.091812,238.535172 241.077789,237.438416 
	C241.925644,233.377502 242.968735,229.711517 243.668213,225.981094 
	C244.634995,220.825134 241.598022,217.324539 236.433167,218.116486 
	C230.799240,218.980362 225.274521,220.556442 219.356216,222.031616 
	C209.759354,224.261276 200.458511,226.083588 191.282776,228.401169 
	C187.728928,229.298782 184.894669,228.921509 181.991730,226.327820 
	C181.723923,223.553970 181.647888,221.101303 182.130417,218.417465 
	C184.573929,218.671539 186.532959,219.764374 188.332001,219.545029 
	C201.656815,217.920456 214.967880,216.157349 228.247574,214.196121 
	C241.047958,212.305695 253.781723,209.960419 266.587494,208.110870 
	C287.426239,205.101120 308.321014,202.476639 329.151611,199.413879 
	C344.388397,197.173569 359.560181,194.490738 374.760925,192.005157 
	C374.132721,193.418701 373.504486,194.832260 372.804047,196.576721 
	C367.687714,206.802200 362.643585,216.696762 357.085266,226.566040 
	C355.012054,225.874222 353.367065,224.482300 351.907532,224.655228 
	C339.545380,226.120056 327.209717,227.818024 314.880127,229.545792 
	C290.260651,232.995789 265.650055,236.509079 241.035812,239.996246 
z"/>
<path fill="#FFBC13" opacity="1.000000" stroke="none" 
	d="
M240.904022,240.365784 
	C265.650055,236.509079 290.260651,232.995789 314.880127,229.545792 
	C327.209717,227.818024 339.545380,226.120056 351.907532,224.655228 
	C353.367065,224.482300 355.012054,225.874222 356.820892,226.785187 
	C355.753174,229.782486 354.435638,232.535324 353.055725,235.645554 
	C349.597992,242.711105 346.202545,249.419235 342.549255,256.382874 
	C339.958801,255.835266 337.498413,254.081802 335.313263,254.375595 
	C312.593384,257.430054 289.915009,260.794647 267.231476,264.116882 
	C259.530243,265.244812 251.869568,266.692444 244.142624,267.577209 
	C241.687836,267.858337 239.078659,266.791168 236.211090,266.144562 
	C236.332077,262.928986 236.782104,259.909821 237.209793,256.472961 
	C238.382370,250.948639 239.577301,245.841980 240.904022,240.365784 
z"/>
<path fill="#FFC51C" opacity="1.000000" stroke="none" 
	d="
M374.963593,191.709869 
	C359.560181,194.490738 344.388397,197.173569 329.151611,199.413879 
	C308.321014,202.476639 287.426239,205.101120 266.587494,208.110870 
	C253.781723,209.960419 241.047958,212.305695 228.247574,214.196121 
	C214.967880,216.157349 201.656815,217.920456 188.332001,219.545029 
	C186.532959,219.764374 184.573929,218.671539 182.331390,218.093155 
	C182.324997,209.950836 182.676208,201.901672 183.097717,193.398773 
	C192.700836,195.558945 201.368362,190.672012 210.498428,189.750198 
	C222.792831,188.508896 235.089981,187.171036 247.312668,185.375839 
	C261.005646,183.364685 274.585693,180.589539 288.272949,178.533203 
	C300.199982,176.741318 312.225861,175.616898 324.174072,173.953506 
	C333.530243,172.650986 342.801636,170.715698 352.170105,169.531738 
	C363.471985,168.103470 374.836609,167.171890 386.644653,166.033417 
	C386.451508,167.791901 385.787811,169.542267 385.075623,171.648666 
	C381.740173,178.474655 378.453217,184.944611 374.963593,191.709869 
z"/>
</svg>