<svg xmlns="http://www.w3.org/2000/svg" version="1.1" xmlns:xlink="http://www.w3.org/1999/xlink" width="64" height="64" x="0" y="0" viewBox="0 0 512 512" style="enable-background:new 0 0 512 512" xml:space="preserve"><g><g fill-rule="evenodd" clip-rule="evenodd"><path fill="#8AC9FE" d="M124.941 109.448c-20.166 8.258-34.469 28.124-34.469 51.174 0 30.395 24.868 55.263 55.263 55.263H366.28c30.395 0 55.263-24.867 55.263-55.263 0-25.412-17.384-46.957-40.846-53.339-4.324-39.957-38.162-71.066-79.269-71.066-9.445 0-18.506 1.642-26.913 4.657-15.894-15.378-37.542-24.844-61.403-24.844-48.777 0-88.32 39.543-88.32 88.32a88.775 88.775 0 0 0 .149 5.098z" opacity="1" data-original="#8ac9fe"></path><path fill="#60B7FF" d="M396.57 206.778c15.014-9.907 24.972-26.923 24.972-46.156 0-25.412-17.384-46.957-40.846-53.339-4.324-39.957-38.162-71.066-79.269-71.066-9.445 0-18.506 1.642-26.913 4.657-15.894-15.378-37.542-24.843-61.403-24.843-28.433 0-53.723 13.439-69.877 34.308 14.931-11.559 33.667-18.442 54.011-18.442 23.861 0 45.509 9.465 61.403 24.843a79.575 79.575 0 0 1 26.913-4.657c41.106 0 74.945 31.109 79.269 71.066 23.463 6.383 40.846 27.927 40.846 53.339.001 11.162-3.356 21.577-9.106 30.29z" opacity="1" data-original="#60b7ff"></path><circle cx="89.53" cy="268.589" r="25.2" fill="#8AC9FE" opacity="1" data-original="#8ac9fe"></circle><path fill="#60B7FF" d="M89.53 243.389c13.917 0 25.2 11.283 25.2 25.2s-11.283 25.2-25.2 25.2c-1.582 0-3.129-.147-4.63-.426 11.706-2.174 20.57-12.438 20.57-24.774s-8.864-22.6-20.57-24.774a25.314 25.314 0 0 1 4.63-.426z" opacity="1" data-original="#60b7ff"></path><circle cx="422.485" cy="374.247" r="25.2" fill="#8AC9FE" opacity="1" data-original="#8ac9fe"></circle><path fill="#60B7FF" d="M422.485 349.047c13.917 0 25.2 11.283 25.2 25.2s-11.282 25.2-25.2 25.2c-1.582 0-3.129-.147-4.63-.426 11.706-2.174 20.57-12.438 20.57-24.774 0-12.335-8.864-22.6-20.57-24.774a25.41 25.41 0 0 1 4.63-.426z" opacity="1" data-original="#60b7ff"></path><path fill="#FFE177" d="M281.666 213.912a109.983 109.983 0 0 1 32.202 13.35l20.926-9.294 24.663 24.663-9.291 20.919a109.977 109.977 0 0 1 13.353 32.211l21.349 8.217v34.878l-21.354 8.219a109.989 109.989 0 0 1-13.35 32.203l9.294 20.926-24.663 24.663-20.919-9.291a109.977 109.977 0 0 1-32.211 13.353l-8.217 21.349H238.57l-8.22-21.354a109.972 109.972 0 0 1-32.202-13.35l-20.926 9.294-24.663-24.662 9.291-20.919a109.977 109.977 0 0 1-13.353-32.211l-21.349-8.217v-34.878l21.352-8.219a109.94 109.94 0 0 1 13.352-32.205l-9.293-20.923 24.663-24.663 20.925 9.294a109.989 109.989 0 0 1 32.203-13.35l8.22-21.354h34.877z" opacity="1" data-original="#ffe177"></path><path fill="#FFD064" d="m198.147 415.573-20.926 9.294-3.222-3.222 19.619-8.714c1.49.918 3 1.798 4.529 2.642zm83.519-201.661a109.983 109.983 0 0 1 32.202 13.35l-5.948 2.642c-9.959-6.132-25.354-13.284-36.731-15.992l-8.219-21.354h10.477zm32.209 201.664a109.977 109.977 0 0 1-32.211 13.353l-8.217 21.349H262.97l8.217-21.349c11.38-2.708 26.779-9.86 36.739-15.995zM173.999 221.19l3.222-3.222 20.925 9.294a110.11 110.11 0 0 0-4.528 2.642zm153.54 0 7.255-3.222 24.663 24.663-9.291 20.919a109.977 109.977 0 0 1 13.353 32.211l21.349 8.217v34.878l-21.354 8.219a109.989 109.989 0 0 1-13.35 32.203l9.294 20.926-24.663 24.663-7.254-3.222 21.441-21.441-9.294-20.926a109.95 109.95 0 0 0 13.35-32.203l21.354-8.219v-34.878l-21.349-8.217a109.977 109.977 0 0 0-13.353-32.211l9.291-20.919z" opacity="1" data-original="#ffd064"></path><circle cx="256.007" cy="321.418" r="70.865" fill="#ECEFF1" transform="rotate(-45 255.968 321.49)" opacity="1" data-original="#eceff1"></circle><path fill="#D1D1D6" d="M256.007 250.553c-39.14 0-70.864 31.724-70.864 70.866 0 39.14 31.724 70.865 70.864 70.865 1.898 0 3.777-.077 5.637-.223-36.504-2.872-65.228-33.399-65.228-70.641 0-37.244 28.724-67.77 65.228-70.642a70.566 70.566 0 0 0-5.637-.225z" opacity="1" data-original="#d1d1d6"></path><path d="M274.357 349.222c1.553 1.878 3.813 2.848 6.119 2.848a8.026 8.026 0 0 0 5.131-1.878l26.923-22.683c1.789-1.52 2.871-3.751 2.871-6.109s-1.035-4.599-2.871-6.109l-26.923-22.711c-3.389-2.838-8.425-2.419-11.249.96-2.871 3.37-2.448 8.421.941 11.259l19.675 16.592-19.675 16.568c-3.343 2.842-3.813 7.879-.942 11.263zm-42.786 2.848c2.26 0 4.519-.97 6.119-2.848 2.824-3.384 2.4-8.421-.988-11.263l-19.675-16.568 19.675-16.592c3.389-2.838 3.813-7.889.988-11.259-2.871-3.379-7.908-3.808-11.297-.96l-26.923 22.71c-1.788 1.511-2.824 3.751-2.824 6.109s1.036 4.589 2.824 6.109l26.924 22.683a8.055 8.055 0 0 0 5.177 1.879zm15.062 4.321c-4.284-1.148-6.825-5.53-5.648-9.79l14.591-54.572c1.13-4.269 5.554-6.797 9.79-5.648 4.283 1.139 6.825 5.521 5.648 9.79l-14.591 54.572c-.989 3.568-4.189 5.916-7.719 5.916-.706 0-1.412-.09-2.071-.268zM193.116 321.4c0-34.671 28.194-62.879 62.884-62.879 34.643 0 62.884 28.208 62.884 62.879 0 34.661-28.241 62.87-62.884 62.87-34.69 0-62.884-28.209-62.884-62.87zm-16.003 0c0-43.492 35.396-78.859 78.887-78.859 43.492 0 78.84 35.367 78.84 78.859 0 43.482-35.349 78.859-78.84 78.859-43.492 0-78.887-35.377-78.887-78.859zm-41.986 11.941v-23.892l16.239-6.246c2.448-.941 4.331-3.055 4.895-5.625 2.495-10.539 6.684-20.588 12.426-29.865a8.018 8.018 0 0 0 .471-7.442l-7.06-15.909 16.898-16.893 15.91 7.06a7.997 7.997 0 0 0 7.437-.49c9.226-5.691 19.251-9.847 29.842-12.388a7.926 7.926 0 0 0 5.601-4.9l6.26-16.22h23.911l6.213 16.21c.941 2.457 3.06 4.297 5.648 4.909 10.543 2.518 20.569 6.688 29.889 12.388a8 8 0 0 0 7.437.49l15.862-7.06 16.898 16.893-7.061 15.909a8.114 8.114 0 0 0 .518 7.418 102.554 102.554 0 0 1 12.379 29.889 8.027 8.027 0 0 0 4.895 5.629l16.239 6.223v23.911l-16.239 6.251a8.003 8.003 0 0 0-4.895 5.601c-2.542 10.586-6.684 20.635-12.379 29.87a8.152 8.152 0 0 0-.518 7.437l7.061 15.9-16.898 16.902-15.862-7.07c-2.447-1.073-5.225-.889-7.437.499a102.41 102.41 0 0 1-29.889 12.412 7.988 7.988 0 0 0-5.648 4.909l-6.213 16.211h-23.911l-6.26-16.244a7.909 7.909 0 0 0-5.601-4.909 100.894 100.894 0 0 1-29.842-12.37 7.976 7.976 0 0 0-7.437-.508l-15.91 7.07-16.898-16.902 7.06-15.9a7.906 7.906 0 0 0-.518-7.451c-5.695-9.207-9.837-19.246-12.379-29.856a8.003 8.003 0 0 0-4.895-5.601zm6.637 19.689-17.51-6.74c-3.059-1.191-5.13-4.147-5.13-7.46v-34.869c0-3.299 2.071-6.269 5.13-7.461l17.51-6.74a118.044 118.044 0 0 1 11.108-26.768l-7.625-17.152a8.097 8.097 0 0 1 1.648-8.901l24.664-24.66c2.353-2.339 5.884-2.998 8.896-1.647l17.18 7.616a118.045 118.045 0 0 1 26.735-11.075l6.731-17.514c1.177-3.088 4.142-5.117 7.484-5.117h34.878a7.963 7.963 0 0 1 7.437 5.13l6.731 17.5a119.381 119.381 0 0 1 26.782 11.075l17.133-7.616c3.012-1.351 6.59-.692 8.896 1.647l24.664 24.66a7.932 7.932 0 0 1 1.647 8.901L359.128 263c4.848 8.5 8.567 17.467 11.108 26.758l17.509 6.712c3.06 1.191 5.131 4.147 5.131 7.461v34.897c0 3.313-2.071 6.269-5.131 7.46l-17.509 6.74a116.882 116.882 0 0 1-11.108 26.74l7.625 17.152a7.922 7.922 0 0 1-1.647 8.896l-24.664 24.664c-2.306 2.339-5.884 2.998-8.896 1.657l-17.133-7.625a118.295 118.295 0 0 1-26.782 11.108l-6.731 17.5a7.968 7.968 0 0 1-7.437 5.13h-34.878c-3.342 0-6.307-2.033-7.484-5.121l-6.731-17.533a116.338 116.338 0 0 1-26.735-11.075l-17.18 7.616c-3.012 1.341-6.543.682-8.896-1.657l-24.664-24.664a8.084 8.084 0 0 1-1.648-8.896l7.625-17.142c-4.754-8.406-8.519-17.377-11.108-26.748zm297.899 21.181c0-9.489-7.719-17.208-17.18-17.208-9.508 0-17.227 7.719-17.227 17.208 0 9.48 7.719 17.199 17.227 17.199 9.46 0 17.18-7.72 17.18-17.199zm16.003 0c0-18.31-14.874-33.202-33.184-33.202s-33.231 14.892-33.231 33.202c0 18.3 14.921 33.188 33.231 33.188s33.184-14.888 33.184-33.188zM89.518 285.759c9.508 0 17.227-7.71 17.227-17.199s-7.719-17.208-17.227-17.208-17.18 7.719-17.18 17.208 7.672 17.199 17.18 17.199zm0 15.989c18.31 0 33.184-14.888 33.184-33.188s-14.874-33.198-33.184-33.198-33.183 14.897-33.183 33.198c-.001 18.301 14.873 33.188 33.183 33.188zm16.709-101.819c3.53-2.65 4.236-7.658 1.6-11.188-6.119-8.181-9.367-17.919-9.367-28.152 0-19.27 11.579-36.45 29.512-43.769a7.957 7.957 0 0 0 4.942-7.931 74.216 74.216 0 0 1-.141-4.571c0-44.296 36.055-80.328 80.346-80.328 20.946 0 40.762 8.03 55.824 22.607a8.009 8.009 0 0 0 8.284 1.774c7.719-2.791 15.862-4.203 24.193-4.203 36.714 0 67.403 27.493 71.309 63.953.376 3.281 2.683 5.997 5.884 6.858 20.569 5.592 34.925 24.354 34.925 45.61 0 26.071-21.228 47.281-47.257 47.281a7.994 7.994 0 1 0 0 15.989c34.878 0 63.26-28.387 63.26-63.27 0-26.66-16.898-50.359-41.609-59.405-7.06-41.971-43.35-73.004-86.513-73.004-8.52 0-16.898 1.21-24.947 3.62-17.554-15.392-39.864-23.798-63.352-23.798-53.14 0-96.35 43.209-96.35 96.317v.071c-20.993 10.821-34.266 32.313-34.266 56.2 0 13.711 4.33 26.763 12.52 37.721 2.636 3.539 7.673 4.259 11.203 1.618zm226.872-6.476a7.958 7.958 0 0 0 7.955 7.701c.094 0 .188 0 .282-.014l32.195-1.158c2.447-.09 4.707-1.299 6.166-3.29s1.883-4.533 1.224-6.891l-8.849-30.981c-1.224-4.25-5.648-6.707-9.884-5.488-4.236 1.21-6.684 5.63-5.46 9.88l2.024 7.23c-30.124-20.531-65.896-31.649-102.751-31.649-29.418 0-58.601 7.15-84.488 20.677-25.041 13.099-47.069 32.162-63.637 55.122-2.541 3.582-1.741 8.571 1.836 11.16a7.85 7.85 0 0 0 4.66 1.511c2.495 0 4.942-1.153 6.496-3.323 31.254-43.308 81.759-69.158 135.134-69.158 34.266 0 67.591 10.557 95.408 30.002l-10.638.386a7.942 7.942 0 0 0-7.673 8.283zM89.424 323.08a8.007 8.007 0 0 0-8.002-7.917h-.094c-4.424.037-7.955 3.657-7.908 8.067.33 32.449 9.273 64.249 25.935 91.968 1.459 2.504 4.142 3.883 6.825 3.883a7.856 7.856 0 0 0 4.095-1.144 7.992 7.992 0 0 0 2.777-10.967c-15.203-25.28-23.346-54.288-23.628-83.89zm313.525-96.378c-3.813 2.231-5.13 7.117-2.871 10.939 14.45 24.791 22.264 53.16 22.546 82.05a7.97 7.97 0 0 0 8.002 7.908h.047c4.424-.038 7.955-3.648 7.955-8.068-.33-31.663-8.896-62.762-24.758-89.953-2.214-3.808-7.109-5.098-10.921-2.876zm1.176 201.506c2.589-3.577 1.789-8.581-1.789-11.16-3.577-2.589-8.613-1.779-11.155 1.803-31.301 43.308-81.853 69.172-135.182 69.172-34.172 0-67.544-10.586-95.361-30.011l10.59-.391a8.008 8.008 0 0 0 7.719-8.27 7.941 7.941 0 0 0-8.284-7.701l-32.195 1.158c-2.448.094-4.754 1.304-6.166 3.29-1.459 1.991-1.93 4.533-1.224 6.891l8.849 30.981c.988 3.521 4.189 5.808 7.672 5.808.706 0 1.459-.099 2.212-.31 4.236-1.219 6.684-5.639 5.46-9.875l-2.071-7.291c30.171 20.536 66.038 31.696 102.798 31.696 29.371 0 58.601-7.15 84.489-20.677 25.042-13.09 47.07-32.148 63.638-55.113z" fill="#000000" opacity="1" data-original="#000000"></path></g></g></svg>